<?xml version="1.0" encoding="iso-8859-1"?>
<!-- Generator: Adobe Illustrator 19.0.0, SVG Export Plug-In . SVG Version: 6.00 Build 0)  -->
<svg fill="#fff" version="1.1" id="Capa_1" xmlns="http://www.w3.org/2000/svg" xmlns:xlink="http://www.w3.org/1999/xlink" x="0px" y="0px"
	 viewBox="0 0 512 512" style="enable-background:new 0 0 512 512;" xml:space="preserve">
<g>
	<g>
		<path d="M482,333.763V193.817l-30,15v124.946c-17.422,6.213-30,22.707-30,42.237c0,24.814,20.186,45,45,45
			c24.814,0,45-20.186,45-45C512,356.47,499.422,339.976,482,333.763z"/>
	</g>
</g>
<g>
	<g>
		<path d="M256,121c-8.276,0-15,6.724-15,15s6.724,15,15,15s15-6.724,15-15S264.276,121,256,121z"/>
	</g>
</g>
<g>
	<g>
		<path d="M503.709,122.582l-241-121c-4.219-2.109-9.199-2.109-13.418,0l-241,121C3.208,125.131,0,130.316,0,136
			s3.208,10.869,8.291,13.418l241,120C251.4,270.473,253.7,271,256,271s4.6-0.527,6.709-1.582l241-120
			C508.792,146.869,512,141.684,512,136S508.792,125.131,503.709,122.582z M256,181c-24.814,0-45-20.186-45-45
			c0-24.814,20.186-45,45-45c24.814,0,45,20.186,45,45C301,160.814,280.814,181,256,181z"/>
	</g>
</g>
<g>
	<g>
		<path d="M276.127,296.254C269.916,299.359,262.958,301,256,301s-13.916-1.641-20.127-4.746L91,223.817V316
			c0,4.556,2.065,8.862,5.625,11.719c46.919,37.529,103.154,56.294,159.375,56.294s113.456-18.765,160.375-56.294
			c3.56-2.856,5.625-7.163,5.625-11.719v-92.183L276.127,296.254z"/>
	</g>
</g>
<g>
	<g>
		<path d="M511.965,435.647C499.399,445.148,483.932,451,467,451s-32.399-5.852-44.965-15.353c-0.002,0.12-0.035,0.232-0.035,0.353
			v61c0,8.291,6.709,15,15,15h60c8.291,0,15-6.709,15-15v-61C512,435.879,511.967,435.767,511.965,435.647z"/>
	</g>
</g>
<g>
</g>
<g>
</g>
<g>
</g>
<g>
</g>
<g>
</g>
<g>
</g>
<g>
</g>
<g>
</g>
<g>
</g>
<g>
</g>
<g>
</g>
<g>
</g>
<g>
</g>
<g>
</g>
<g>
</g>
</svg>
